<?xml version="1.0" encoding="UTF-8" standalone="no"?>
<!-- Created with Inkscape (http://www.inkscape.org/) -->

<svg
   xmlns:dc="http://purl.org/dc/elements/1.1/"
   xmlns:cc="http://creativecommons.org/ns#"
   xmlns:rdf="http://www.w3.org/1999/02/22-rdf-syntax-ns#"
   xmlns:svg="http://www.w3.org/2000/svg"
   xmlns="http://www.w3.org/2000/svg"
   xmlns:sodipodi="http://sodipodi.sourceforge.net/DTD/sodipodi-0.dtd"
   xmlns:inkscape="http://www.inkscape.org/namespaces/inkscape"
   width="110.98675mm"
   height="100.64007mm"
   viewBox="0 0 393.26013 356.59866"
   id="svg2"
   version="1.1"
   inkscape:version="0.91 r13725"
   sodipodi:docname="UnicornVektor.svg">
  <defs
     id="defs4" />
  <sodipodi:namedview
     id="base"
     pagecolor="#ffffff"
     bordercolor="#666666"
     borderopacity="1.0"
     inkscape:pageopacity="0.0"
     inkscape:pageshadow="2"
     inkscape:zoom="0.24748737"
     inkscape:cx="102.18236"
     inkscape:cy="-946.61564"
     inkscape:document-units="px"
     inkscape:current-layer="layer1"
     showgrid="false"
     inkscape:window-width="1863"
     inkscape:window-height="1176"
     inkscape:window-x="57"
     inkscape:window-y="24"
     inkscape:window-maximized="1"
     fit-margin-top="0"
     fit-margin-left="0"
     fit-margin-right="0"
     fit-margin-bottom="0" />
  <metadata
     id="metadata7">
    <rdf:RDF>
      <cc:Work
         rdf:about="">
        <dc:format>image/svg+xml</dc:format>
        <dc:type
           rdf:resource="http://purl.org/dc/dcmitype/StillImage" />
        <dc:title></dc:title>
      </cc:Work>
    </rdf:RDF>
  </metadata>
  <g
     inkscape:label="Ebene 1"
     inkscape:groupmode="layer"
     id="layer1"
     transform="translate(-148.92919,-139.72789)">
    <path
       style="fill:#000000"
       d="m 174.88249,436.01811 c -2.84286,-3.55115 -5.88719,-10.87069 -6.76517,-16.26565 -0.87799,-5.39496 -3.20907,-11.12417 -5.18018,-12.73155 -1.97111,-1.60736 -3.58384,-4.55574 -3.58384,-6.55191 0,-1.99619 -2.34542,-8.14674 -5.21205,-13.66792 -2.86664,-5.52118 -5.21206,-13.59847 -5.21206,-17.94955 0,-9.13018 6.57389,-23.02051 10.89494,-23.02051 1.68725,0 1.1027,-1.99809 -1.36994,-4.68273 -9.69228,-10.52327 -2.24394,-29.00804 13.22589,-32.82308 7.47213,-1.84271 7.40541,-2.44705 -1.73255,-15.69431 -4.15422,-6.02236 -8.33615,-15.50366 -9.29318,-21.06956 -1.862,-10.82908 0.35075,-25.59485 3.83556,-25.59485 1.16405,0 2.85228,-2.88071 3.75163,-6.40158 2.19296,-8.58521 6.73799,-8.15657 6.78784,0.64016 0.0219,3.87295 1.17671,8.77016 2.56613,10.88268 1.87484,2.85056 2.53651,1.32159 2.56612,-5.92976 0.0219,-5.37388 1.21023,-11.91938 2.64063,-14.54554 3.20272,-5.88007 14.73314,-14.04981 23.45957,-16.62199 l 6.51507,-1.92036 -6.84816,7.34583 c -13.64656,14.6383 -16.09497,25.29596 -7.55572,32.88924 3.6769,3.26958 7.42537,4.12294 13.16013,2.99596 8.25857,-1.62293 38.79583,-18.26344 54.32868,-29.60503 12.20255,-8.90991 36.64283,-10.47989 52.93146,-3.40018 l 11.61427,5.04804 5.48669,-6.05251 c 7.50045,-8.27392 14.80334,-8.16317 12.66911,0.19212 -0.8773,3.43456 -0.54944,6.87964 0.72859,7.65574 2.55941,1.55425 6.81347,-21.15852 14.82337,-21.37039 8.0099,-0.21187 8.88943,3.65918 11.21647,8.39046 4.68694,9.52943 8.109,9.5566 22.50595,6.86397 14.39696,-2.69264 14.66778,1.27076 15.92451,2.49094 2.79499,2.71377 27.44232,-13.53149 84.15472,-55.46707 23.52867,-17.39809 43.39409,-31.02891 44.14538,-30.2907 1.95223,1.91821 -18.58901,22.13642 -62.94397,61.95409 -35.88567,32.21474 -38.27826,34.92916 -34.45094,39.08462 2.26211,2.45607 5.17348,8.09901 6.46967,12.53985 2.39948,8.22074 0.81869,25.91958 -2.31506,25.91958 -0.94849,0 -3.38018,-5.47334 -5.40374,-12.16298 l -3.67921,-12.16299 -0.92765,9.60236 c -1.08087,11.18826 -3.56387,12.13691 -8.4219,3.2177 -1.91267,-3.51156 -6.29374,-8.19774 -9.73573,-10.41373 l -6.25817,-4.02907 4.53133,7.21294 c 2.49225,3.96712 12.31594,15.27893 21.83042,25.13735 9.51448,9.85842 22.86004,24.51587 29.65679,32.57211 6.79676,8.05624 15.41623,16.12222 19.15442,17.9244 3.73819,1.80218 9.04073,6.25773 11.78345,9.90122 4.81104,6.39113 4.82855,7.11285 0.49666,20.48503 -5.87399,18.13256 -10.72827,23.51956 -19.99012,22.18389 -4.16868,-0.60119 -8.53774,0.44624 -10.23291,2.45321 -2.13961,2.53315 -6.27246,3.03429 -14.93521,1.81103 -13.88409,-1.96055 -21.0981,-7.16864 -21.0981,-15.23157 0,-11.07386 -5.92434,-12.50351 -26.44033,-6.38053 -20.71681,6.18292 -31.65475,5.54051 -46.05873,-2.70512 l -8.65135,-4.95251 1.76656,5.78044 c 2.32328,7.60207 13.40607,32.95778 28.26891,64.67488 6.59959,14.08346 12.00496,27.96847 12.01189,30.85558 0.008,2.88711 1.06464,6.34396 2.35043,7.68188 1.28579,1.33793 3.12544,7.19896 4.08811,13.02449 l 1.75028,10.59189 -8.64865,-0.41352 c -7.86802,-0.37621 -8.72811,-1.21668 -9.52889,-9.31157 l -0.88024,-8.89806 -4.54651,8.60279 -4.5465,8.60279 -5.60497,-8.60279 c -2.80155,-3.8658 4.59324,-8.3873 7.27173,-12.33936 1.18493,-1.88386 1.04283,-4.69453 -0.31583,-6.24589 -11.24447,-12.83963 -47.20109,-71.015 -50.3672,-81.49071 -4.52568,-14.97412 -5.24734,-34.20486 -1.37191,-36.55828 1.45824,-0.88554 2.60603,1.09881 2.60603,4.50538 0,12.62882 8.24763,32.17876 24.05476,57.01867 14.88905,23.39721 22.12773,37.25268 26.68207,51.07185 1.18319,3.59021 2.23845,4.13644 3.65139,1.89008 1.14835,-1.82568 -2.59378,-12.60516 -8.86439,-25.53454 -14.79495,-30.50577 -22.32691,-52.74799 -24.05216,-71.02704 -1.11796,-11.84486 -3.20507,-17.51308 -9.11243,-24.74779 -5.22881,-6.40369 -8.27275,-13.72291 -9.58429,-23.04566 l -1.92194,-13.66164 -7.5521,15.36377 c -6.65173,13.53208 -7.54028,18.11133 -7.45295,38.40944 0.0612,14.23505 1.78912,28.36286 4.51956,36.95371 2.43123,7.64945 4.40247,15.71543 4.38052,17.92441 -0.0735,7.39509 -4.80018,-2.35896 -12.02868,-24.82251 -5.772,-17.93723 -6.63916,-24.56184 -5.69817,-43.53069 1.43723,-28.97246 10.22843,-47.05063 38.90468,-80.00333 15.71778,-18.06175 20.54584,-25.32658 19.46332,-29.28661 -0.7918,-2.89654 -1.5757,-10.45171 -1.74198,-16.78926 -0.30048,-11.45174 -0.31519,-11.46936 -2.38405,-2.85692 -1.20793,5.02846 -0.96949,11.80086 0.56806,16.13464 1.45738,4.1078 2.22101,7.70504 1.69696,7.99386 -0.52405,0.28881 -9.14534,3.23076 -19.15843,6.53765 -21.02968,6.94521 -48.06445,23.37972 -67.03407,40.75021 -21.34581,19.54637 -43.39639,51.2727 -39.70961,57.13411 0.91086,1.44814 4.18375,-2.00667 7.27308,-7.67733 10.40666,-19.10211 28.97238,-41.94715 44.28521,-54.49277 14.36437,-11.76856 45.28466,-29.25829 47.63802,-26.94592 0.5956,0.58522 -6.89502,6.89313 -16.64581,14.01756 -24.49319,17.89601 -52.85808,47.93982 -64.38951,68.2007 -8.78974,15.44371 -9.49981,18.12682 -7.87298,29.74924 1.88405,13.46 -1.11784,17.105 -5.77577,7.01318 -2.37937,-5.15511 -3.24402,-3.91413 -8.21633,11.79257 -6.63349,20.95406 -6.8608,25.56683 -1.47623,29.95777 7.80581,6.36539 12.11148,18.6922 13.50455,38.6625 0,0 -20.47836,-8.83202 -23.57049,-12.00938 -15.61108,-14.45769 -22.42253,-17.96301 -17.56087,-9.03717 1.48374,2.7241 2.69772,9.0255 2.69772,14.00308 0,7.51462 -0.7738,8.78185 -4.56055,7.46866 -26.81883,-20.73833 -16.0374,-9.80138 -26.81883,-20.73833 z m 21.11993,0.91025 c -1.75122,-2.07334 -7.48872,-6.16671 -12.75,-9.09637 -9.40276,-5.23577 -9.36594,-5.15427 2.15843,4.77746 11.28672,9.72691 17.19395,12.1357 10.59157,4.31891 z m -6.67978,-25.85728 c -14.10746,-6.52996 -19.55073,-7.8874 -15.44291,-3.85113 2.77053,2.72228 21.67287,9.96776 25.86702,9.91514 1.43332,-0.0179 -3.25753,-2.74679 -10.42411,-6.06401 z m 18.2422,-3.78497 c -0.88584,-1.40834 -3.00729,-2.54298 -4.71435,-2.52142 -1.86492,0.023 -1.54349,1.02996 0.80531,2.52142 5.0065,3.1791 5.90866,3.1791 3.90904,0 z m -21.81,-9.5567 c -8.2777,-3.9554 -15.98979,-9.9051 -18.88397,-14.56852 -2.69063,-4.33545 -4.89644,-6.50653 -4.9018,-4.82463 -0.0237,7.47737 25.35295,26.33202 35.17165,26.13211 1.43332,-0.0292 -3.69033,-3.06172 -11.38588,-6.73896 z m 40.03087,-12.4847 c 3.13104,-13.82822 3.60238,-20.2752 1.62442,-22.2187 -5.94406,-5.84051 -16.39121,31.14915 -10.70048,37.8866 1.77128,2.09707 3.54556,3.81287 3.94284,3.81287 0.39727,0 2.70722,-8.76633 5.13322,-19.48077 z m -24.73594,-3.41376 c 0,-5.67983 4.26633,-9.34046 5.75876,-4.94117 0.54553,1.60808 2.62206,-1.92971 4.61451,-7.86172 3.12326,-9.29871 3.10702,-11.09977 -0.11777,-13.06536 -2.82656,-1.72285 -4.23615,-0.42379 -5.76945,5.31706 -2.02305,7.57446 -7.09208,10.60883 -7.09208,4.24539 0,-6.35553 -6.68155,-12.2997 -16.19537,-14.40804 -8.09815,-1.79461 -10.35741,-1.26012 -14.94198,3.53491 -5.1994,5.43809 -5.2367,5.97332 -0.99811,14.32176 2.42173,4.76989 4.67677,7.56358 5.0112,6.20819 0.33444,-1.35539 1.33138,-5.68024 2.21543,-9.6108 0.88405,-3.93055 2.66467,-6.50439 3.95693,-5.71965 1.29225,0.78474 3.08615,0.25573 3.98644,-1.17559 0.90029,-1.43132 3.56129,-2.6024 5.91333,-2.6024 3.32613,0 3.58151,0.68284 1.14922,3.07276 -4.71603,4.63387 -3.76672,13.36218 2.27397,20.90789 6.39527,7.98863 10.23497,8.65521 10.23497,1.77677 z m 256.87198,-3.99407 c -12.72354,-11.12682 -6.579,-11.90194 8.42183,-1.0624 15.10376,10.91394 23.33269,8.34153 28.44705,-8.89273 1.99827,-6.73374 3.07493,-13.58565 2.39256,-15.22647 -0.68236,-1.64083 -1.33324,-0.96682 -1.44639,1.49778 -0.11316,2.46461 -1.96482,4.4811 -4.11479,4.4811 -2.43229,0 -3.90905,2.41837 -3.90905,6.40158 0,3.52086 -1.17271,6.40157 -2.60603,6.40157 -1.43331,0 -2.60602,-1.15229 -2.60602,-2.56063 0,-1.40835 -1.3879,-2.27256 -3.08421,-1.92047 -1.69632,0.35208 -5.7316,-4.54512 -8.9673,-10.88268 -6.76736,-13.25488 -7.60119,-17.14105 -2.84576,-13.26315 2.24411,1.82999 4.60267,1.88956 7.16658,0.18098 3.267,-2.17708 3.11491,-2.992 -1.04788,-5.61493 -10.79907,-6.80438 -15.87825,-11.68868 -14.04016,-13.50142 1.0662,-1.05149 4.29116,0.18019 7.16658,2.73708 11.53887,10.2606 4.06756,-0.0207 -15.98056,-21.99131 -13.39724,-14.68183 -21.89623,-22.14897 -23.07558,-20.27401 -1.34062,2.13141 -3.07572,1.78046 -6.15469,-1.24487 -2.60293,-2.55758 -4.28775,-3.02736 -4.28775,-1.19555 0,1.65962 -1.75907,2.35423 -3.90904,1.54358 -2.14998,-0.81065 -3.90905,-0.28125 -3.90905,1.17644 0,1.45769 -3.13711,2.28574 -6.97139,1.84011 -4.88826,-0.56814 -9.58953,-4.47641 -15.73327,-13.07946 l -8.76189,-12.26921 12.47574,1.44544 c 17.80929,2.06338 21.64232,3.62703 24.20644,9.87487 l 2.27209,5.53623 0.16523,-5.44788 c 0.23037,-7.59386 -5.68626,-11.60748 -19.33974,-13.11962 -6.42618,-0.7117 -13.16865,-3.0554 -14.98323,-5.20821 -2.89869,-3.43897 -2.08162,-3.69016 6.72986,-2.06892 6.84489,1.25941 9.48516,0.98043 8.31581,-0.87866 -0.94234,-1.49817 -3.11003,-2.73104 -4.81709,-2.73972 -1.70705,-0.009 -6.36118,-1.68533 -10.34252,-3.7259 -6.9749,-3.57488 -7.56536,-3.36426 -16.19605,5.77718 -4.92653,5.21803 -12.76988,16.40103 -17.42971,24.8511 -10.96549,19.88468 -11.79364,39.817 -2.43074,58.50452 6.34807,12.67019 18.20376,22.15082 27.65907,22.11813 2.86663,-0.01 15.18012,-4.60232 27.3633,-10.20535 25.31104,-11.6405 28.38125,-12.08559 36.84722,-5.34168 7.89716,6.29081 4.76898,9.64648 -3.83107,4.10968 -6.18473,-3.98179 -7.18594,-3.87082 -19.11981,2.11919 l -12.59332,6.32102 7.81809,1.74713 c 24.30283,5.43101 29.96933,9.53139 29.96933,21.68637 0,6.02368 7.48634,9.91678 19.54522,10.16404 l 7.81809,0.16029 -10.246,-8.9602 z m -14.51128,-66.79411 c -15.24266,-9.72349 -26.06029,-19.29417 -26.06029,-23.05636 0,-3.5227 26.73004,14.81294 33.80405,23.18811 5.32005,6.2986 2.25479,6.24644 -7.74376,-0.13175 z m -49.19453,-5.22553 c -3.23434,-2.22595 -9.05184,-10.55349 -12.92776,-18.50566 -5.56048,-11.40831 -8.83597,-15.03029 -15.52658,-17.16896 -10.00624,-3.19852 -8.30069,-6.25173 3.49229,-6.25173 10.02067,0 12.15425,2.2536 19.05997,20.13221 2.91695,7.55185 7.31356,15.91297 9.77021,18.58026 5.88592,6.39057 3.55801,8.32474 -3.86813,3.21388 z m -217.09307,29.97919 c -3.82401,-6.01654 0.89889,-13.01107 8.78543,-13.01107 3.75432,0 4.66992,1.23418 3.53111,4.75974 -0.88757,2.74776 0.13979,6.12749 2.43042,7.99542 3.28126,2.67577 3.96788,2.5025 3.96788,-1.00131 0,-2.33035 2.6386,-5.27911 5.86357,-6.5528 3.22496,-1.27369 4.39767,-2.38884 2.60602,-2.47812 -5.41222,-0.26966 -3.65023,-5.28356 1.85677,-5.28356 7.84504,0 33.07053,-9.92591 36.97581,-14.54952 3.05796,-3.62041 2.77398,-3.89513 -2.36861,-2.29138 -9.83229,3.06629 -6.43544,-2.05671 4.90494,-7.39741 12.18289,-5.73748 33.55443,-21.46487 33.55443,-24.69281 0,-1.18509 -3.00813,-1.03094 -6.68473,0.34255 -3.67659,1.37348 -9.24698,2.42948 -12.37863,2.34666 -6.36329,-0.16828 -7.54403,0.83196 16.45733,-13.94154 10.80598,-6.65137 12.91254,-8.83858 8.56027,-8.88799 -3.17508,-0.0361 -9.91818,3.51067 -14.98466,7.8816 -5.60076,4.83187 -9.24577,6.58846 -9.29848,4.4811 -0.15252,-6.09728 -10.33742,8.27836 -10.33742,14.59092 0,3.28172 -1.03939,6.59796 -2.30975,7.36941 -2.56821,1.55958 -5.41801,-6.81852 -5.47275,-16.08928 -0.0353,-5.98565 -0.0974,-5.97332 -9.12247,1.81273 -9.66895,8.34155 -26.28835,14.1018 -34.28503,11.88312 -2.66179,-0.73851 -0.74189,0.52072 4.26644,2.7983 8.89466,4.04491 24.20529,3.94916 34.54492,-0.21602 2.54665,-1.02588 4.56055,-0.7082 4.56055,0.71939 0,3.99815 -19.78439,10.77729 -31.97659,10.95682 -10.05514,0.14806 -10.4509,0.38996 -4.50781,2.75532 3.58329,1.42615 10.32639,2.0017 14.98466,1.27899 4.65828,-0.7227 8.4696,-0.21724 8.4696,1.12327 0,5.65213 -17.16515,12.58612 -31.27235,12.63269 -15.46095,0.051 -25.17348,3.65151 -29.71354,11.01492 -2.32305,3.7677 -1.70358,5.57546 3.29045,9.60236 7.75603,6.25402 9.05466,6.26611 5.10222,0.0475 z m 45.898,-1.20184 c 2.77788,1.0474 5.53209,0.31738 6.91833,-1.83375 4.05425,-6.29129 2.65019,-6.62716 -10.77827,-2.57829 -9.64458,2.90798 -11.90762,4.40906 -8.4696,5.61793 2.58038,0.9073 5.37171,0.61561 6.20296,-0.64821 0.83126,-1.26382 3.58821,-1.51478 6.12658,-0.55768 z M 395.45954,270.0364 c -0.92746,-2.37483 -2.27267,-3.74173 -2.98933,-3.03756 -0.71666,0.70417 -0.54416,3.22336 0.3833,5.59819 0.92746,2.37483 2.27266,3.74173 2.98932,3.03756 0.71666,-0.70417 0.54416,-3.22336 -0.38329,-5.59819 z m -164.09195,-2.93926 c 6.41365,-3.98689 12.41615,-10.12837 13.85046,-14.17114 2.75911,-7.77691 2.14605,-7.68279 -10.94141,1.67984 -3.94162,2.81979 -7.16658,6.69424 -7.16658,8.60989 0,1.91566 -3.81132,5.11071 -8.4696,7.10012 -5.64171,2.4094 -6.8206,3.65056 -3.53079,3.71733 2.71633,0.0551 10.0324,-3.06609 16.25792,-6.93604 z m 35.55227,-18.93062 c 8.9955,-4.50922 13.86312,-5.19186 29.14561,-4.08747 14.67304,1.06034 16.54545,0.82787 9.35135,-1.16105 -9.86136,-2.72631 -32.29546,-1.74253 -40.51934,1.77686 -4.81929,2.0624 -4.92087,1.85667 -1.34792,-2.73004 3.64648,-4.68113 3.52136,-4.67241 -2.22133,0.15468 -5.80269,4.87753 -13.36994,16.72577 -13.36994,20.93367 0,1.08748 1.83657,-0.59915 4.08126,-3.74806 2.24468,-3.14892 8.94082,-8.16128 14.88031,-11.13859 z m 160.85444,2.92123 c 0,-1.40835 -1.24193,-2.56063 -2.75984,-2.56063 -1.51791,0 -2.03505,1.15228 -1.14921,2.56063 0.88584,1.40834 2.12777,2.56062 2.75984,2.56062 0.63206,0 1.14921,-1.15228 1.14921,-2.56062 z m -32.57537,-15.36378 c 4.78496,-2.02034 4.67819,-2.21864 -1.30301,-2.41986 -5.18908,-0.17459 -5.71948,-0.72439 -2.60603,-2.7014 3.16101,-2.00721 2.78699,-2.48971 -1.95452,-2.52141 -5.55262,-0.0371 -7.89731,4.79081 -4.12621,8.49621 2.10958,2.07285 3.29981,1.97116 9.98977,-0.85354 z"
       id="path4147"
       inkscape:connector-curvature="0"
       sodipodi:nodetypes="csssssssssssscsssscssssscssscscsssssssscssscsssssssssssscsscsscssccccccsssssssssscssssssssssscssssssssssssccssccsssssscsscssssccssssssssssssssssssssssscsssssssssssssssscsssssscsscssssscsssscsssscsssccccsscssssssssssssssssssssssscsssssssssssssssssssssssssssscssssscssssssssssssssssssss" />
  </g>
</svg>
